<svg id="Layer_1" data-name="Layer 1" xmlns="http://www.w3.org/2000/svg" viewBox="0 0 3000 3000"><defs><style>.cls-1{fill:#122236;}.cls-2,.cls-3,.cls-4{fill:#fff;}.cls-2{opacity:0.25;}.cls-3{opacity:0.5;}</style></defs><rect class="cls-1" width="3000" height="3000" rx="249.61"/><path class="cls-2" d="M1994.94,1707.54h0l-433.17-433.17a129.24,129.24,0,0,0-181.62,0L931.23,1723.29h0L766.79,1887.73,1065,2185.93h0l182.38,182.37L1471,2144.7l223.6,223.6,4.73-4.73,475.84-475.84Z"/><path class="cls-3" d="M1994.94,1102.16h0L1561.77,669a129.22,129.22,0,0,0-181.62,0L931.23,1117.9h0L766.79,1282.35,1065,1580.54h0l182.38,182.38,223.6-223.6,223.6,223.6,4.73-4.74,475.84-475.83Z"/><path class="cls-4" d="M1994.94,1400.69h0L1561.77,967.52a129.22,129.22,0,0,0-181.62,0L931.23,1416.43h0L766.79,1580.88,1065,1879.07h0l182.38,182.38,223.6-223.6,223.6,223.6,4.73-4.74,475.84-475.83ZM1389.08,1555l-143.91,143.89-118-118,343.8-343.8,343.79,343.8-120.19,120.19L1548.47,1555A112.7,112.7,0,0,0,1389.08,1555Z"/><path class="cls-1" d="M1245.17,1698.88,1389.08,1555a112.7,112.7,0,0,1,159.39,0l146.09,146.08,120.19-120.19L1471,1237.08l-343.8,343.8Z"/></svg>